<svg width="21" height="15" viewBox="0 0 21 15" fill="none" xmlns="http://www.w3.org/2000/svg">
<path d="M8.20048 9.36978C7.60995 8.8949 7.25049 8.24959 7.25049 7.52568C7.25049 6.07539 8.70064 4.90638 10.5 4.90638C11.3904 4.90638 12.21 5.19677 12.7902 5.67165" stroke="#86C9F6" stroke-width="1.07644" stroke-linecap="round" stroke-linejoin="round"/>
<path d="M13.6892 7.99021C13.4509 9.05745 12.4074 9.89967 11.0836 10.0933" stroke="#86C9F6" stroke-width="1.07644" stroke-linecap="round" stroke-linejoin="round"/>
<path d="M5.01052 11.9396C3.38064 10.9088 2.00032 9.40303 1 7.52583C2.01059 5.64037 3.40015 4.12637 5.0403 3.08725C6.67018 2.04813 8.55066 1.4839 10.4999 1.4839C12.4605 1.4839 14.34 2.05641 15.9801 3.10297" stroke="#86C9F6" stroke-width="1.07644" stroke-linecap="round" stroke-linejoin="round"/>
<path d="M18.1493 4.92231C18.8559 5.67849 19.4773 6.55131 20 7.52507C17.9799 11.2952 14.4099 13.5662 10.5001 13.5662C9.61376 13.5662 8.73976 13.4504 7.89966 13.2245" stroke="#86C9F6" stroke-width="1.07644" stroke-linecap="round" stroke-linejoin="round"/>
<path d="M18.6006 1L2.40039 14.0502" stroke="#86C9F6" stroke-width="1.07644" stroke-linecap="round" stroke-linejoin="round"/>
</svg>
