<svg width="20" height="14" viewBox="0 0 20 14" fill="none" xmlns="http://www.w3.org/2000/svg">
<path d="M10 1.86667C13.4455 1.86667 16.5182 3.85467 18.0182 7C16.5182 10.1453 13.4545 12.1333 10 12.1333C6.54545 12.1333 3.48182 10.1453 1.98182 7C3.48182 3.85467 6.55455 1.86667 10 1.86667ZM10 0C5.54984 0 1.73578 2.78224 0.101941 6.7439C0.0343321 6.90784 0.0343319 7.09216 0.101941 7.2561C1.73577 11.2178 5.54984 14 10 14C14.4502 14 18.2642 11.2178 19.8981 7.2561C19.9657 7.09216 19.9657 6.90784 19.8981 6.7439C18.2642 2.78224 14.4502 0 10 0ZM10 4.66667C11.2545 4.66667 12.2727 5.712 12.2727 7C12.2727 8.288 11.2545 9.33333 10 9.33333C8.74545 9.33333 7.72727 8.288 7.72727 7C7.72727 5.712 8.74545 4.66667 10 4.66667ZM10 2.8C7.74545 2.8 5.90909 4.68533 5.90909 7C5.90909 9.31467 7.74545 11.2 10 11.2C12.2545 11.2 14.0909 9.31467 14.0909 7C14.0909 4.68533 12.2545 2.8 10 2.8Z" fill="#86C9F6"/>
</svg>
