<svg width="22" height="22" viewBox="0 0 22 22" fill="none" xmlns="http://www.w3.org/2000/svg">
<path d="M11 6.625C10.1347 6.625 9.28889 6.88159 8.56942 7.36232C7.84996 7.84305 7.28921 8.52633 6.95807 9.32576C6.62694 10.1252 6.5403 11.0048 6.70911 11.8535C6.87792 12.7022 7.2946 13.4817 7.90645 14.0936C8.51831 14.7054 9.29786 15.1221 10.1465 15.2909C10.9952 15.4597 11.8749 15.3731 12.6743 15.042C13.4737 14.7108 14.157 14.1501 14.6377 13.4306C15.1184 12.7111 15.375 11.8653 15.375 11C15.3737 9.84009 14.9123 8.72809 14.0921 7.90791C13.2719 7.08774 12.1599 6.62637 11 6.625V6.625ZM11 13.625C10.4809 13.625 9.97335 13.471 9.54167 13.1826C9.10999 12.8942 8.77354 12.4842 8.57486 12.0045C8.37618 11.5249 8.3242 10.9971 8.42548 10.4879C8.52677 9.97868 8.77678 9.51095 9.14389 9.14384C9.511 8.77673 9.97873 8.52672 10.4879 8.42544C10.9971 8.32415 11.5249 8.37613 12.0046 8.57481C12.4842 8.77349 12.8942 9.10995 13.1826 9.54162C13.4711 9.9733 13.625 10.4808 13.625 11C13.6243 11.696 13.3475 12.3632 12.8553 12.8553C12.3632 13.3474 11.696 13.6242 11 13.625V13.625Z" fill="#FF5B5B"/>
<path d="M2.48929 5.55995C2.05904 5.3983 1.58277 5.41036 1.16125 5.59358C0.739725 5.7768 0.406005 6.11681 0.230684 6.54168C0.055362 6.96654 0.0521895 7.44295 0.221838 7.87012C0.391486 8.29728 0.720648 8.6417 1.13969 8.83052C1.566 9.01083 1.92973 9.31275 2.18545 9.69857C2.44117 10.0844 2.57755 10.537 2.57755 10.9999C2.57755 11.4627 2.44117 11.9153 2.18545 12.3012C1.92973 12.687 1.566 12.9889 1.13969 13.1692C0.720548 13.358 0.391306 13.7025 0.221634 14.1298C0.051963 14.557 0.0551747 15.0335 0.23059 15.4585C0.406005 15.8834 0.73986 16.2234 1.16151 16.4065C1.58317 16.5897 2.05953 16.6016 2.48982 16.4398C2.91919 16.2649 3.39062 16.2206 3.84505 16.3125C4.29947 16.4043 4.71669 16.6283 5.04444 16.9562C5.37219 17.2841 5.59589 17.7014 5.68753 18.1559C5.77916 18.6103 5.73465 19.0817 5.55958 19.511C5.3927 19.9424 5.40306 20.4223 5.5884 20.8461C5.77375 21.2699 6.11906 21.6033 6.54912 21.7737C6.76449 21.8628 6.9953 21.9087 7.22838 21.9087C7.5689 21.9111 7.90254 21.8129 8.18748 21.6265C8.47243 21.44 8.696 21.1736 8.83016 20.8606C9.01047 20.4343 9.31239 20.0706 9.69821 19.8149C10.084 19.5592 10.5366 19.4228 10.9995 19.4228C11.4624 19.4228 11.915 19.5592 12.3008 19.8149C12.6866 20.0706 12.9885 20.4343 13.1688 20.8606C13.3577 21.2798 13.7021 21.609 14.1294 21.7787C14.5567 21.9484 15.0332 21.9451 15.4581 21.7697C15.883 21.5943 16.223 21.2605 16.4062 20.8388C16.5893 20.4172 16.6013 19.9408 16.4394 19.5105C16.2646 19.0811 16.2203 18.6097 16.3121 18.1553C16.404 17.7009 16.6279 17.2836 16.9558 16.9559C17.2837 16.6281 17.701 16.4044 18.1555 16.3128C18.61 16.2212 19.0814 16.2657 19.5107 16.4407C19.9394 16.6072 20.4164 16.5983 20.8386 16.4159C21.2607 16.2335 21.5942 15.8924 21.7669 15.4662L20.9646 15.1176L20.1683 14.8194C19.4205 14.5138 18.599 14.4362 17.8072 14.5963C17.0154 14.7564 16.2886 15.1471 15.7182 15.7191C15.1482 16.2937 14.7566 17.0209 14.5906 17.813C14.4245 18.6051 14.4912 19.4283 14.7824 20.1834C14.4703 19.4382 13.9446 18.802 13.2715 18.3552C12.5983 17.9083 11.808 17.6707 11.0001 17.6724C10.1904 17.6749 9.39875 17.912 8.72101 18.3551C8.04327 18.7981 7.50846 19.4281 7.18131 20.1688C7.48663 19.4209 7.56411 18.5995 7.40403 17.8077C7.24394 17.0159 6.85342 16.2891 6.28154 15.7186C5.70693 15.1487 4.97976 14.7572 4.18768 14.5911C3.39559 14.4251 2.57239 14.4917 1.81729 14.7829C2.56248 14.4707 3.19856 13.9448 3.64532 13.2716C4.09209 12.5984 4.32954 11.808 4.32776 11.0001C4.32525 10.1904 4.08812 9.39876 3.64507 8.72102C3.20203 8.04328 2.57205 7.50848 1.83138 7.18132C2.57922 7.48683 3.4007 7.56441 4.19251 7.40432C4.98432 7.24422 5.71113 6.8536 6.28154 6.28156C6.85151 5.70699 7.24312 4.97982 7.40915 4.18772C7.57518 3.39561 7.50854 2.5724 7.21727 1.81731C7.52949 2.5625 8.05534 3.19857 8.72853 3.64534C9.40172 4.0921 10.1921 4.32956 11.0001 4.32777C11.8098 4.32526 12.6014 4.08814 13.2791 3.64509C13.9569 3.20204 14.4917 2.57207 14.8188 1.8314C14.5135 2.57927 14.436 3.40069 14.5961 4.19247C14.7562 4.98424 15.1467 5.71104 15.7186 6.28156C16.2933 6.85124 17.0205 7.24264 17.8125 7.40866C18.6046 7.57467 19.4277 7.50821 20.1828 7.21728C19.4412 7.52884 18.8078 8.05178 18.3613 8.72091C17.9149 9.39005 17.6753 10.1758 17.6724 10.9802C17.6695 11.7845 17.9034 12.572 18.345 13.2443C18.7865 13.9167 19.4162 14.4442 20.1555 14.7611C20.158 14.7683 20.158 14.7761 20.1555 14.7833L20.9643 15.117L21.7683 15.4618L21.7731 15.4507C21.9517 15.0269 21.9561 14.5499 21.7852 14.1229C21.6144 13.696 21.2821 13.3536 20.8604 13.1701C20.4341 12.9898 20.0704 12.6878 19.8147 12.302C19.559 11.9162 19.4226 11.4636 19.4226 11.0007C19.4226 10.5379 19.559 10.0853 19.8147 9.69944C20.0704 9.31363 20.4341 9.01171 20.8604 8.8314C21.2796 8.64258 21.6088 8.2981 21.7785 7.87084C21.9482 7.44359 21.945 6.96708 21.7695 6.54215C21.5941 6.11722 21.2603 5.77721 20.8386 5.59406C20.417 5.4109 19.9406 5.39899 19.5103 5.56082C19.0809 5.73569 18.6095 5.77996 18.1551 5.68811C17.7007 5.59625 17.2834 5.37235 16.9557 5.04444C16.6279 4.71654 16.4042 4.29921 16.3126 3.84474C16.221 3.39027 16.2655 2.91886 16.4406 2.48957C16.6023 2.05931 16.5904 1.58298 16.4072 1.16138C16.224 0.739779 15.884 0.405977 15.4591 0.230602C15.0342 0.0552274 14.5577 0.0520378 14.1305 0.221708C13.7033 0.391379 13.3589 0.720598 13.1701 1.13971C12.9898 1.56601 12.6878 1.92974 12.302 2.18546C11.9162 2.44118 11.4636 2.57756 11.0007 2.57756C10.5379 2.57756 10.0852 2.44118 9.69943 2.18546C9.31361 1.92974 9.01169 1.56601 8.83138 1.13971C8.64256 0.720563 8.29808 0.391321 7.87083 0.22165C7.44357 0.0519783 6.96706 0.0551899 6.54213 0.230605C6.11721 0.40602 5.77719 0.739875 5.59404 1.16153C5.41089 1.58318 5.39897 2.05955 5.56081 2.48983C5.73567 2.91921 5.77995 3.39064 5.68809 3.84506C5.59624 4.29949 5.37233 4.71671 5.04443 5.04446C4.71652 5.3722 4.2992 5.59591 3.84472 5.68754C3.39025 5.77918 2.91885 5.73467 2.48956 5.5596L2.48929 5.55995Z" fill="#FF5B5B"/>
</svg>
