<svg width="20" height="21" viewBox="0 0 20 21" fill="none" xmlns="http://www.w3.org/2000/svg">
<path d="M17.5002 4.91136H2.50023C2.02801 4.91136 1.6669 4.55024 1.6669 4.07802C1.6669 3.6058 2.02801 3.24469 2.50023 3.24469H17.5002C17.9725 3.24469 18.3336 3.6058 18.3336 4.07802C18.3336 4.55024 17.9725 4.91136 17.5002 4.91136Z" fill="#464255"/>
<path d="M12.5002 9.35575H2.50023C2.02801 9.35575 1.6669 8.99464 1.6669 8.52242C1.6669 8.0502 2.02801 7.68909 2.50023 7.68909H12.5002C12.9725 7.68909 13.3336 8.0502 13.3336 8.52242C13.3336 8.99464 12.9725 9.35575 12.5002 9.35575Z" fill="#464255"/>
<path d="M17.5002 13.8002H2.50023C2.02801 13.8002 1.6669 13.4391 1.6669 12.9669C1.6669 12.4947 2.02801 12.1335 2.50023 12.1335H17.5002C17.9725 12.1335 18.3336 12.4947 18.3336 12.9669C18.3336 13.4391 17.9725 13.8002 17.5002 13.8002Z" fill="#464255"/>
<path d="M12.5002 18.2446H2.50023C2.02801 18.2446 1.6669 17.8835 1.6669 17.4113C1.6669 16.9391 2.02801 16.5779 2.50023 16.5779H12.5002C12.9725 16.5779 13.3336 16.9391 13.3336 17.4113C13.3336 17.8835 12.9725 18.2446 12.5002 18.2446Z" fill="#464255"/>
</svg>
