<svg width="20" height="21" viewBox="0 0 20 21" fill="none" xmlns="http://www.w3.org/2000/svg">
<path d="M15.9916 14.6697C16.4243 14.1532 16.663 13.5018 16.6666 12.828C16.6666 12.0545 16.3593 11.3126 15.8123 10.7656C15.2654 10.2186 14.5235 9.91136 13.7499 9.91136H13.5166C14.2039 9.09468 14.5815 8.06205 14.5833 6.99469C14.5852 6.22515 14.3934 5.4675 14.0254 4.79163C13.6575 4.11575 13.1253 3.5434 12.4779 3.12735C11.8305 2.71131 11.0888 2.46497 10.3211 2.41105C9.55346 2.35713 8.78458 2.49736 8.08539 2.81882C7.3862 3.14027 6.77921 3.63261 6.32038 4.25041C5.86156 4.86821 5.56568 5.5916 5.46003 6.35386C5.35437 7.11612 5.44235 7.89271 5.71585 8.61201C5.98934 9.33132 6.43954 9.97018 7.02494 10.4697C5.45017 11.0715 4.09496 12.1369 3.13829 13.525C2.18162 14.9132 1.66847 16.5588 1.66661 18.2447C1.66661 18.4657 1.75441 18.6777 1.91069 18.8339C2.06697 18.9902 2.27893 19.078 2.49994 19.078C2.72096 19.078 2.93292 18.9902 3.0892 18.8339C3.24548 18.6777 3.33328 18.4657 3.33328 18.2447C3.33328 16.4766 4.03566 14.7809 5.2859 13.5306C6.53614 12.2804 8.23183 11.578 9.99994 11.578H11.1249C10.8808 12.0747 10.7871 12.6319 10.8552 13.1811C10.9233 13.7303 11.1503 14.2477 11.5083 14.6697C10.7983 15.0668 10.2071 15.646 9.79551 16.3476C9.38391 17.0492 9.16682 17.8479 9.16661 18.6614C9.16661 18.8824 9.25441 19.0943 9.41069 19.2506C9.56697 19.4069 9.77893 19.4947 9.99994 19.4947C10.221 19.4947 10.4329 19.4069 10.5892 19.2506C10.7455 19.0943 10.8333 18.8824 10.8333 18.6614C10.8333 17.8878 11.1406 17.1459 11.6875 16.599C12.2345 16.052 12.9764 15.7447 13.7499 15.7447C14.5235 15.7447 15.2654 16.052 15.8123 16.599C16.3593 17.1459 16.6666 17.8878 16.6666 18.6614C16.6666 18.8824 16.7544 19.0943 16.9107 19.2506C17.067 19.4069 17.2789 19.4947 17.4999 19.4947C17.721 19.4947 17.9329 19.4069 18.0892 19.2506C18.2455 19.0943 18.3333 18.8824 18.3333 18.6614C18.3331 17.8479 18.116 17.0492 17.7044 16.3476C17.2928 15.646 16.7015 15.0668 15.9916 14.6697V14.6697ZM9.99994 9.91136C9.42308 9.91136 8.85917 9.7403 8.37953 9.41981C7.89989 9.09932 7.52605 8.6438 7.3053 8.11085C7.08454 7.5779 7.02678 6.99146 7.13932 6.42568C7.25186 5.8599 7.52965 5.3402 7.93755 4.9323C8.34545 4.5244 8.86515 4.24661 9.43093 4.13407C9.99671 4.02153 10.5832 4.07929 11.1161 4.30004C11.6491 4.5208 12.1046 4.89464 12.4251 5.37428C12.7456 5.85392 12.9166 6.41783 12.9166 6.99469C12.9166 7.76824 12.6093 8.51011 12.0623 9.05709C11.5154 9.60407 10.7735 9.91136 9.99994 9.91136V9.91136ZM13.7499 14.078C13.4184 14.078 13.1005 13.9463 12.8661 13.7119C12.6316 13.4775 12.4999 13.1595 12.4999 12.828C12.5021 12.4972 12.6345 12.1805 12.8685 11.9466C13.1024 11.7126 13.4191 11.5802 13.7499 11.578C14.0815 11.578 14.3994 11.7097 14.6338 11.9441C14.8682 12.1786 14.9999 12.4965 14.9999 12.828C14.9999 13.1595 14.8682 13.4775 14.6338 13.7119C14.3994 13.9463 14.0815 14.078 13.7499 14.078Z" fill="#464255"/>
</svg>
