<svg width="20" height="21" viewBox="0 0 20 21" fill="none" xmlns="http://www.w3.org/2000/svg">
<path d="M17.5 16.578H4.16667V3.24471C4.16667 3.0237 4.07887 2.81173 3.92259 2.65545C3.76631 2.49917 3.55435 2.41138 3.33333 2.41138C3.11232 2.41138 2.90036 2.49917 2.74408 2.65545C2.5878 2.81173 2.5 3.0237 2.5 3.24471V17.4114C2.5 17.6324 2.5878 17.8444 2.74408 18.0006C2.90036 18.1569 3.11232 18.2447 3.33333 18.2447H17.5C17.721 18.2447 17.933 18.1569 18.0893 18.0006C18.2455 17.8444 18.3333 17.6324 18.3333 17.4114C18.3333 17.1904 18.2455 16.9784 18.0893 16.8221C17.933 16.6658 17.721 16.578 17.5 16.578Z" fill="#464255"/>
<path d="M5.83336 9.91134V14.078C5.83336 14.299 5.92116 14.511 6.07744 14.6673C6.23372 14.8235 6.44568 14.9113 6.66669 14.9113C6.88771 14.9113 7.09967 14.8235 7.25595 14.6673C7.41223 14.511 7.50003 14.299 7.50003 14.078V9.91134C7.50003 9.69032 7.41223 9.47836 7.25595 9.32208C7.09967 9.1658 6.88771 9.078 6.66669 9.078C6.44568 9.078 6.23372 9.1658 6.07744 9.32208C5.92116 9.47836 5.83336 9.69032 5.83336 9.91134Z" fill="#464255"/>
<path d="M9.16664 5.74471V14.078C9.16664 14.2991 9.25444 14.511 9.41072 14.6673C9.567 14.8236 9.77896 14.9114 9.99998 14.9114C10.221 14.9114 10.433 14.8236 10.5892 14.6673C10.7455 14.511 10.8333 14.2991 10.8333 14.078V5.74471C10.8333 5.5237 10.7455 5.31174 10.5892 5.15545C10.433 4.99917 10.221 4.91138 9.99998 4.91138C9.77896 4.91138 9.567 4.99917 9.41072 5.15545C9.25444 5.31174 9.16664 5.5237 9.16664 5.74471Z" fill="#464255"/>
<path d="M12.5 7.41134V14.078C12.5 14.299 12.5878 14.511 12.7441 14.6673C12.9004 14.8235 13.1123 14.9113 13.3333 14.9113C13.5543 14.9113 13.7663 14.8235 13.9226 14.6673C14.0789 14.511 14.1667 14.299 14.1667 14.078V7.41134C14.1667 7.19032 14.0789 6.97836 13.9226 6.82208C13.7663 6.6658 13.5543 6.578 13.3333 6.578C13.1123 6.578 12.9004 6.6658 12.7441 6.82208C12.5878 6.97836 12.5 7.19032 12.5 7.41134Z" fill="#464255"/>
<path d="M15.8334 3.24471V14.078C15.8334 14.2991 15.9212 14.511 16.0774 14.6673C16.2337 14.8236 16.4457 14.9114 16.6667 14.9114C16.8877 14.9114 17.0997 14.8236 17.2559 14.6673C17.4122 14.511 17.5 14.2991 17.5 14.078V3.24471C17.5 3.0237 17.4122 2.81173 17.2559 2.65545C17.0997 2.49917 16.8877 2.41138 16.6667 2.41138C16.4457 2.41138 16.2337 2.49917 16.0774 2.65545C15.9212 2.81173 15.8334 3.0237 15.8334 3.24471V3.24471Z" fill="#464255"/>
</svg>
