<svg width="20" height="21" viewBox="0 0 20 21" fill="none" xmlns="http://www.w3.org/2000/svg">
<path d="M2.49996 19.0781H5.83329C5.94296 19.0787 6.05168 19.0577 6.15321 19.0162C6.25474 18.9747 6.34709 18.9136 6.42496 18.8364L16.425 8.83641C16.5031 8.75894 16.5651 8.66677 16.6074 8.56522C16.6497 8.46367 16.6715 8.35475 16.6715 8.24474C16.6715 8.13473 16.6497 8.02581 16.6074 7.92426C16.5651 7.82271 16.5031 7.73054 16.425 7.65307L13.0916 4.31974C13.0142 4.24163 12.922 4.17964 12.8204 4.13733C12.7189 4.09502 12.61 4.07324 12.5 4.07324C12.3899 4.07324 12.281 4.09502 12.1795 4.13733C12.0779 4.17964 11.9858 4.24163 11.9083 4.31974L1.90829 14.3197C1.83106 14.3976 1.76995 14.49 1.72848 14.5915C1.68701 14.693 1.66599 14.8017 1.66662 14.9114V18.2447C1.66662 18.4658 1.75442 18.6777 1.9107 18.834C2.06698 18.9903 2.27894 19.0781 2.49996 19.0781ZM3.33329 15.2531L12.5 6.08641L14.6583 8.24474L5.49162 17.4114H3.33329V15.2531Z" fill="#464255"/>
<path d="M14.7584 2.65291C14.6807 2.57521 14.5885 2.51358 14.487 2.47153C14.3854 2.42948 14.2766 2.40784 14.1668 2.40784C13.9448 2.40784 13.732 2.49599 13.5751 2.65291C13.4182 2.80983 13.33 3.02266 13.33 3.24458C13.33 3.4665 13.4182 3.67933 13.5751 3.83625L16.9084 7.16958C16.9859 7.24769 17.0781 7.30968 17.1796 7.35199C17.2812 7.3943 17.3901 7.41608 17.5001 7.41608C17.6101 7.41608 17.719 7.3943 17.8206 7.35199C17.9221 7.30968 18.0143 7.24769 18.0918 7.16958C18.1699 7.09211 18.2319 6.99995 18.2742 6.8984C18.3165 6.79685 18.3383 6.68793 18.3383 6.57792C18.3383 6.46791 18.3165 6.35898 18.2742 6.25743C18.2319 6.15589 18.1699 6.06372 18.0918 5.98625L14.7584 2.65291Z" fill="#464255"/>
</svg>
