<svg width="24" height="24" viewBox="0 0 24 24" fill="none" xmlns="http://www.w3.org/2000/svg">
<path d="M20.261 22H2.86957C2.63895 22 2.41777 21.9084 2.25469 21.7453C2.09162 21.5822 2 21.3611 2 21.1304C2 20.8998 2.09162 20.6786 2.25469 20.5156C2.41777 20.3525 2.63895 20.2609 2.86957 20.2609H20.261C20.4917 20.2609 20.7128 20.3525 20.8759 20.5156C21.039 20.6786 21.1306 20.8998 21.1306 21.1304C21.1306 21.3611 21.039 21.5822 20.8759 21.7453C20.7128 21.9084 20.4917 22 20.261 22Z" fill="#545454"/>
<path d="M12.0749 5.47815L4.86356 12.6895C4.75207 12.8011 4.67302 12.9408 4.63486 13.0939L2.86963 18.5217L8.2975 16.7565C8.45053 16.7184 8.59031 16.6393 8.70186 16.5278L15.9132 9.31645L12.0749 5.47815Z" fill="#545454"/>
<path d="M19.1367 4.86332L16.528 2.2546C16.3649 2.09158 16.1437 2 15.9132 2C15.6826 2 15.4614 2.09158 15.2984 2.2546L13.3044 4.24853L17.1427 8.08683L19.1367 6.0929C19.2997 5.92983 19.3913 5.70869 19.3913 5.47811C19.3913 5.24753 19.2997 5.02639 19.1367 4.86332Z" fill="#545454"/>
</svg>
